<?xml version="1.0" encoding="UTF-8"?>
<svg width="39px" height="40px" viewBox="0 0 39 40" version="1.1" xmlns="http://www.w3.org/2000/svg" xmlns:xlink="http://www.w3.org/1999/xlink">
    <title>698EDE17-840E-415E-8438-300E52A73E1C</title>
    <g id="Page-1" stroke="none" stroke-width="1" fill="none" fill-rule="evenodd">
        <g id="Homepage-1" transform="translate(-609.000000, -2283.000000)" fill="#447EB7">
            <g id="News" transform="translate(0.000000, 1165.000000)">
                <g id="Group-4" transform="translate(127.000000, 362.000000)">
                    <g id="Fill-8-Copy-3" transform="translate(482.000000, 756.000000)">
                        <path d="M19.5,39.5 C16.8208336,39.5 14.2939242,38.981834 11.9192055,37.9454867 C9.54448677,36.9396195 7.47424707,35.5527638 5.70843128,33.7848765 C3.94261408,32.0169906 2.55738243,29.9443239 1.55269303,27.5668212 C0.517559226,25.2197992 0,22.6899275 0,19.9771359 C0,17.2948252 0.517559226,14.7649604 1.55269303,12.3874576 C2.55738243,10.0404288 3.94261408,7.98300942 5.70843128,6.21512279 C7.47424707,4.44723616 9.54448677,3.04514014 11.9192055,2.00879281 C14.2939242,1.00292628 16.8208336,0.5 19.5,0.5 C22.1791733,0.5 24.7060758,1.00292628 27.0807945,2.00879281 C29.4555202,3.04514014 31.5257529,4.44723616 33.2915694,6.21512279 C35.0573859,7.98300942 36.4426176,10.0404288 37.4473063,12.3874576 C38.4824401,14.7649604 39,17.2948252 39,19.9771359 C39,22.6899275 38.4824401,25.2197992 37.4473063,27.5668212 C36.4426176,29.9443239 35.0573859,32.0169906 33.2915694,33.7848765 C31.5257529,35.5527638 29.4555202,36.9396195 27.0807945,37.9454867 C24.7060758,38.981834 22.1791733,39.5 19.5,39.5 Z M19.5,35.5 C21.6515279,35.5 23.6666543,35.0915117 25.5454511,34.2745239 C27.4242549,33.4575361 29.0681778,32.3455388 30.4772755,30.9385043 C31.8863731,29.5314697 33,27.8899537 33.8181831,26.0139077 C34.6060657,24.1378617 35,22.1256788 35,19.9773035 C35,17.859187 34.6060657,15.847011 33.8181831,13.9407062 C33,12.0646532 31.8863731,10.4307054 30.4772755,9.03880024 C29.0681778,7.64689512 27.4242549,6.54246253 25.5454511,5.72547475 C23.6666543,4.90848696 21.6515279,4.5 19.5,4.5 C17.348477,4.5 15.3333437,4.90848696 13.4545468,5.72547475 C11.57575,6.54246253 9.93182704,7.64689512 8.52272941,9.03880024 C7.11363177,10.4307054 6,12.0646532 5.18181827,13.9407062 C4.39393572,15.847011 4,17.859187 4,19.9773035 C4,22.1256788 4.39393572,24.1378617 5.18181827,26.0139077 C6,27.8899537 7.11363177,29.5314697 8.52272941,30.9385043 C9.93182704,32.3455388 11.57575,33.4575361 13.4545468,34.2745239 C15.3333437,35.0915117 17.348477,35.5 19.5,35.5 Z M22.5328678,21.9877529 L11.8732414,21.9877529 C11.3677617,21.9877529 10.9291872,21.792878 10.5575109,21.4031212 C10.1858347,21.0133643 10,20.5378645 10,19.9766146 C10,19.4465452 10.1858347,18.9866429 10.5575109,18.596886 C10.9291872,18.2071291 11.3677617,18.0122543 11.8732414,18.0122543 L22.5328678,18.0122543 L17.6713632,12.9142559 C17.4929586,12.7583531 17.3517251,12.5556796 17.2476557,12.3062352 C17.1435864,12.0567908 17.0915483,11.7917632 17.0915483,11.5111383 C17.0915483,10.9498884 17.277383,10.4743886 17.6490592,10.0846317 C18.0207354,9.69487486 18.474177,9.5 19.0093908,9.5 C19.2769977,9.5 19.5297307,9.55456954 19.7676035,9.66370146 C20.0054763,9.77283338 20.2136149,9.92093742 20.3920195,10.1080207 L28.4647862,18.573497 C28.6431908,18.7605803 28.7769943,18.9710454 28.8661966,19.2048996 C28.9553989,19.4387537 29,19.6959896 29,19.9766146 C29,20.2572395 28.9553989,20.5222742 28.8661966,20.7717186 C28.7769943,21.021163 28.6431908,21.2238294 28.4647862,21.3797322 L20.3920195,29.8919864 C20.2136149,30.0790697 20.0054763,30.2271738 19.7676035,30.3363057 C19.5297307,30.4454376 19.2769977,30.5 19.0093908,30.5 C18.474177,30.5 18.0207354,30.3051251 17.6490592,29.9153683 C17.277383,29.5256114 17.0915483,29.0501187 17.0915483,28.4888689 C17.0915483,28.2082439 17.1435864,27.9432092 17.2476557,27.6937648 C17.3517251,27.4443204 17.4929586,27.2260637 17.6713632,27.0389805 L22.5328678,21.9877529 Z" id="Fill-1"></path>
                    </g>
                </g>
            </g>
        </g>
    </g>
</svg>